<svg width="24" height="24" viewBox="0 0 24 24" xmlns="http://www.w3.org/2000/svg">
<g id="Icon">
<path id=" " fill-rule="evenodd" clip-rule="evenodd" d="M8 2H10V4H14V2H16V4H17C19.2091 4 21 5.79086 21 8V17C21 19.2091 19.2091 21 17 21H7C4.79086 21 3 19.2091 3 17V8C3 5.79086 4.79086 4 7 4H8V2ZM14 6V8H16V6H17C18.1046 6 19 6.89543 19 8V17C19 18.1046 18.1046 19 17 19H7C5.89543 19 5 18.1046 5 17V8C5 6.89543 5.89543 6 7 6H8V8H10V6H14ZM11 9.5H13V11.5H11V9.5ZM9 11.5V9.5H7V11.5H9ZM17 9.5V11.5H15V9.5H17ZM15.2499 13.3499H12.7499V14.8499H14.343C13.7226 15.4094 12.901 15.7499 11.9999 15.7499C10.7107 15.7499 9.58432 15.0529 8.977 14.0152L7.72725 14.8484C8.60491 16.2884 10.1901 17.2499 11.9999 17.2499C13.2407 17.2499 14.3759 16.798 15.2499 16.0497V17.3499H16.7499V14.8499V13.3499H15.2499Z" fill="currentColor"/>
</g>
</svg>
