<svg width="35" height="35" viewBox="0 0 35 35" fill="none" xmlns="http://www.w3.org/2000/svg">
<path d="M16.0938 4.375C19.3246 4.375 21.9774 5.19174 24.0527 6.82422C26.1398 8.45672 27.4961 10.7406 28.1211 13.6768H31.0752C31.3817 13.6768 31.6239 13.8645 31.8008 14.2402C31.9894 14.6043 32.083 15.2034 32.083 16.0371H28.457C28.4806 16.5069 28.4932 16.9833 28.4932 17.4648C28.4932 18.1459 28.4632 18.8151 28.4043 19.4727H31.0752C31.3817 19.4727 31.6239 19.6605 31.8008 20.0361C31.9894 20.4002 32.083 21.0001 32.083 21.834H27.9795C27.2838 24.6172 25.8926 26.7779 23.8057 28.3164C21.7303 29.855 19.0708 30.624 15.8281 30.624H7.25V21.834H3.9248C3.61824 21.834 3.3703 21.6687 3.18164 21.3398C3.00493 20.9991 2.91699 20.3766 2.91699 19.4727H7.25V16.0371H3.9248C3.61824 16.0371 3.3703 15.8728 3.18164 15.5439C3.0049 15.2033 2.91699 14.5808 2.91699 13.6768H7.25V4.375H16.0938ZM11.3008 27.1006H15.5986C17.7919 27.1006 19.5784 26.6543 20.958 25.7617C22.3373 24.8575 23.3158 23.5483 23.8936 21.834H11.3008V27.1006ZM11.3008 19.4727H24.4248C24.4955 18.8386 24.5312 18.1693 24.5312 17.4648C24.5312 16.9716 24.5129 16.4952 24.4775 16.0371H11.3008V19.4727ZM11.3008 13.6768H24.0713C23.5525 11.7977 22.6032 10.3645 21.2236 9.37793C19.844 8.39137 18.045 7.89844 15.8281 7.89844H11.3008V13.6768Z" fill="#777781"/>
</svg>
