<svg width="17" height="17" viewBox="0 0 17 17" fill="none" xmlns="http://www.w3.org/2000/svg">
<path d="M7.81738 2.125C9.38641 2.12506 10.6747 2.52169 11.6826 3.31445C12.6963 4.10732 13.3556 5.21662 13.6592 6.64258H15.0938C15.2426 6.64262 15.3604 6.73449 15.4463 6.91699C15.5378 7.09386 15.583 7.38523 15.583 7.79004H13.8223C13.8337 8.01799 13.8389 8.24878 13.8389 8.48242C13.8389 8.81319 13.8255 9.13864 13.7969 9.45801H15.0938C15.2426 9.45805 15.3604 9.54992 15.4463 9.73242C15.5377 9.90925 15.583 10.2 15.583 10.6045H13.5898C13.2519 11.9565 12.5762 13.0066 11.5625 13.7539C10.5546 14.5011 9.26326 14.8749 7.68848 14.875H3.52148V10.6045H1.90625C1.75743 10.6045 1.63751 10.5248 1.5459 10.3652C1.45999 10.1998 1.41699 9.89726 1.41699 9.45801H3.52148V7.79004H1.90625C1.75739 7.79 1.63751 7.70949 1.5459 7.5498C1.46001 7.38436 1.41699 7.08178 1.41699 6.64258H3.52148V2.125H7.81738ZM5.48926 13.1631H7.57617C8.64146 13.1631 9.50958 12.9462 10.1797 12.5127C10.8497 12.0734 11.3249 11.4373 11.6055 10.6045H5.48926V13.1631ZM5.48926 9.45801H11.8633C11.8976 9.15003 11.915 8.82462 11.915 8.48242C11.915 8.2431 11.9068 8.01228 11.8896 7.79004H5.48926V9.45801ZM5.48926 6.64258H11.6914C11.4394 5.73007 10.9786 5.03379 10.3086 4.55469C9.63857 4.0756 8.76501 3.83599 7.68848 3.83594H5.48926V6.64258Z" fill="#131C26"/>
</svg>
