<svg width="15" height="16" viewBox="0 0 15 16" fill="none" xmlns="http://www.w3.org/2000/svg">
<path fill-rule="evenodd" clip-rule="evenodd" d="M13.125 9.23603C13.0742 9.73966 12.9415 10.22 12.7407 10.6624L12.7406 10.6622L8.49206 11.5604V8.8702L7.16855 9.14987V10.642C7.16855 10.7783 7.12691 10.9049 7.05546 11.0099V11.0101L6.36713 12.0246C6.1964 12.2717 5.9338 12.4513 5.62827 12.5145L1.875 13.3074C1.92584 12.8038 2.05854 12.3234 2.25929 11.881L5.84504 11.1235V9.42954L2.49918 10.1364C2.55012 9.6328 2.68292 9.15246 2.88367 8.71002L5.84504 8.08442V2.85425C6.21111 2.40983 6.66146 2.03295 7.16855 1.75V7.80485L8.49206 7.52518V3.51219C8.85814 3.06776 9.30848 2.69099 9.81557 2.40794V7.24541L13.1249 6.54628C13.0741 7.04991 12.9414 7.53025 12.7406 7.97269L9.81567 8.59063V9.93575L13.125 9.23603ZM8.49236 14.25C8.5432 13.7463 8.67591 13.2661 8.87666 12.8236L13.125 11.9258C13.0741 12.4294 12.9415 12.9097 12.7407 13.3522L8.49236 14.25Z" fill="#7F90A3"/>
</svg>
