<svg width="27" height="27" viewBox="0 0 27 27" fill="none" xmlns="http://www.w3.org/2000/svg">
<path fill-rule="evenodd" clip-rule="evenodd" d="M23.625 15.7249C23.5335 16.6314 23.2946 17.496 22.9333 18.2924L22.9331 18.292L15.2857 19.9088V15.0664L12.9034 15.5698V18.2557C12.9034 18.501 12.8284 18.7288 12.6998 18.9178V18.9181L11.4608 20.7442C11.1535 21.1891 10.6808 21.5123 10.1309 21.626L3.375 23.0534C3.46651 22.1468 3.70537 21.2822 4.06673 20.4858L10.5211 19.1223V16.0732L4.49852 17.3456C4.59021 16.439 4.82925 15.5744 5.19061 14.778L10.5211 13.652V4.23766C11.18 3.43769 11.9906 2.75932 12.9034 2.25V13.1487L15.2857 12.6453V5.42194C15.9446 4.62197 16.7553 3.94378 17.668 3.43429V12.1417L23.6248 10.8833C23.5333 11.7898 23.2944 12.6545 22.9331 13.4508L17.6682 14.5631V16.9844L23.625 15.7249ZM15.2863 24.7499C15.3778 23.8434 15.6166 22.979 15.978 22.1824L23.625 20.5664C23.5333 21.4729 23.2946 22.3375 22.9333 23.1339L15.2863 24.7499Z" fill="#54545C"/>
</svg>
