<svg width="19" height="19" viewBox="0 0 19 19" fill="none" xmlns="http://www.w3.org/2000/svg">
<path fill-rule="evenodd" clip-rule="evenodd" d="M16.625 11.0658C16.5606 11.7037 16.3925 12.3122 16.1382 12.8726L16.1381 12.8723L10.7566 14.0101V10.6024L9.08016 10.9567V12.8468C9.08016 13.0194 9.02743 13.1797 8.93692 13.3127V13.3129L8.06504 14.598C7.84878 14.911 7.51615 15.1385 7.12914 15.2185L2.375 16.2229C2.4394 15.585 2.60748 14.9765 2.86177 14.4161L7.40371 13.4566V11.3109L3.16562 12.2063C3.23015 11.5684 3.39836 10.9599 3.65265 10.3995L7.40371 9.60709V2.98222C7.86741 2.41928 8.43785 1.9419 9.08016 1.5835V9.25297L10.7566 8.89872V3.81561C11.2203 3.25266 11.7907 2.77542 12.4331 2.41688V8.54434L16.6249 7.65878C16.5605 8.29671 16.3924 8.90515 16.1381 9.46557L12.4332 10.2483V11.9521L16.625 11.0658ZM10.757 17.4168C10.8214 16.7789 10.9895 16.1706 11.2438 15.61L16.625 14.4728C16.5605 15.1107 16.3925 15.7191 16.1382 16.2796L10.757 17.4168Z" fill="#777781"/>
</svg>
