<svg width="17" height="17" viewBox="0 0 17 17" fill="none" xmlns="http://www.w3.org/2000/svg">
<path fill-rule="evenodd" clip-rule="evenodd" d="M14.875 9.90067C14.8174 10.4714 14.667 11.0158 14.4395 11.5173L14.4394 11.517L9.62433 12.535V9.48606L8.12435 9.80302V11.4942C8.12435 11.6486 8.07717 11.7921 7.99619 11.911V11.9112L7.21609 13.061C7.02259 13.3411 6.72498 13.5446 6.37871 13.6162L2.125 14.5149C2.18262 13.9441 2.33301 13.3997 2.56053 12.8983L6.62437 12.0398V10.12L2.8324 10.9211C2.89013 10.3503 3.04064 9.80596 3.26816 9.30453L6.62437 8.59551V2.66799C7.03926 2.16431 7.54965 1.73718 8.12435 1.4165V8.27866L9.62433 7.9617V3.41365C10.0392 2.90997 10.5496 2.48296 11.1243 2.16217V7.64463L14.8749 6.85229C14.8173 7.42306 14.6669 7.96746 14.4394 8.46888L11.1244 9.16922V10.6937L14.875 9.90067ZM9.62468 15.5831C9.6823 15.0124 9.83269 14.4681 10.0602 13.9665L14.875 12.949C14.8173 13.5198 14.667 14.0642 14.4395 14.5656L9.62468 15.5831Z" fill="#777781"/>
</svg>
