<svg width="11" height="12" viewBox="0 0 11 12" fill="none" xmlns="http://www.w3.org/2000/svg">
<path fill-rule="evenodd" clip-rule="evenodd" d="M9.625 6.9065C9.58772 7.27583 9.4904 7.62808 9.34318 7.95254L9.34311 7.95239L6.22751 8.61108V6.63823L5.25693 6.84332V7.93758C5.25693 8.03754 5.2264 8.13034 5.174 8.20731V8.20746L4.66923 8.95144C4.54403 9.13267 4.35146 9.26436 4.1274 9.31069L1.375 9.89219C1.41228 9.52286 1.5096 9.17061 1.65682 8.84616L4.28636 8.29063V7.04841L1.83273 7.56679C1.87009 7.19747 1.96747 6.84522 2.11469 6.52076L4.28636 6.06199V2.22653C4.55482 1.90062 4.88507 1.62425 5.25693 1.41675V5.85697L6.22751 5.65188V2.70902C6.49597 2.38311 6.82622 2.10681 7.19808 1.89923V5.44671L9.62493 4.93402C9.58764 5.30335 9.49033 5.6556 9.34311 5.98005L7.19816 6.43321V7.41963L9.625 6.9065ZM6.22773 10.5834C6.26502 10.2141 6.36233 9.86189 6.50955 9.53736L9.625 8.87897C9.58765 9.24829 9.49041 9.60054 9.34319 9.925L6.22773 10.5834Z" fill="#777781"/>
</svg>
