<svg width="13" height="13" viewBox="0 0 13 13" fill="none" xmlns="http://www.w3.org/2000/svg">
<path fill-rule="evenodd" clip-rule="evenodd" d="M11.375 7.57115C11.3309 8.00762 11.2159 8.42392 11.0419 8.80737L7.35978 9.58564V7.25409L6.21274 7.49647V8.78969C6.21274 8.90782 6.17666 9.01767 6.11473 9.10864L5.51818 9.98788C5.37022 10.2021 5.14263 10.3577 4.87783 10.4125L1.625 11.0997C1.66906 10.6632 1.78407 10.2469 1.95805 9.86346L5.0657 9.20694V7.73886L2.16595 8.35149C2.2101 7.91501 2.3252 7.49872 2.49918 7.11527L5.0657 6.57308V2.04027C5.38297 1.6551 5.77326 1.32848 6.21274 1.08325V6.33079L7.35978 6.08841V2.61048C7.67705 2.22531 8.06735 1.89878 8.50683 1.65346V5.84594L11.3749 5.24003C11.3309 5.6765 11.2158 6.0928 11.0419 6.47625L8.50691 7.0118V8.17757L11.375 7.57115ZM7.36005 11.9166C7.40411 11.4801 7.51912 11.0639 7.6931 10.6803L11.375 9.90224C11.3309 10.3387 11.2159 10.755 11.042 11.1385L7.36005 11.9166Z" fill="white"/>
</svg>
