<svg width="12" height="12" viewBox="0 0 12 12" fill="none" xmlns="http://www.w3.org/2000/svg">
<path fill-rule="evenodd" clip-rule="evenodd" d="M10.5 6.98882C10.4593 7.39173 10.3532 7.776 10.1926 8.12995L10.1925 8.12979L6.79365 8.84836V6.69616L5.73484 6.9199V8.11364C5.73484 8.22268 5.70153 8.32392 5.64437 8.40789V8.40805L5.09371 9.21966C4.95712 9.41737 4.74704 9.56104 4.50262 9.61158L1.5 10.2459C1.54067 9.84303 1.64683 9.45876 1.80744 9.10481L4.67603 8.49879V7.14363L1.99934 7.70914C2.04009 7.30624 2.14633 6.92197 2.30694 6.56802L4.67603 6.06753V1.8834C4.96889 1.52786 5.32917 1.22636 5.73484 1V5.84388L6.79365 5.62014V2.40975C7.08651 2.05421 7.44679 1.75279 7.85246 1.52635V5.39633L10.4999 4.83702C10.4592 5.23993 10.3531 5.6242 10.1925 5.97815L7.85254 6.4725V7.5486L10.5 6.98882ZM6.79389 11C6.83456 10.5971 6.94072 10.2129 7.10133 9.85885L10.5 9.1406C10.4593 9.5435 10.3532 9.92778 10.1926 10.2817L6.79389 11Z" fill="#CD2A3E"/>
</svg>
