<svg width="38" height="26" viewBox="0 0 38 26" fill="none" xmlns="http://www.w3.org/2000/svg">
<rect x="1" y="1" width="36" height="24" rx="4" fill="white" stroke="#E6E5E9" stroke-width="0.65625"/>
<g clip-path="url(#clip0_634_13127)">
<path d="M22.6745 16.6184C21.6522 17.2282 20.2661 17.1081 19.5325 16.3385C19.0925 16.5487 18.6904 16.8338 18.2474 16.9261C17.8027 17.0188 17.3173 16.9193 16.8171 16.903C16.7934 17.2408 16.7582 17.6399 16.739 18.0398C16.7121 18.5987 16.4011 18.9103 15.8462 18.9147C15.5886 18.9168 15.3311 18.9151 15.0161 18.9151C15.213 16.0278 15.4069 13.1847 15.603 10.3099C15.9327 10.3099 16.2377 10.2873 16.5378 10.3152C16.9742 10.3558 17.2315 10.6491 17.2085 11.0921C17.1673 11.886 17.0811 12.6778 17.0505 13.4719C17.0361 13.8453 17.0449 14.2406 17.1525 14.5933C17.365 15.2892 18.1341 15.6349 18.8213 15.3908C18.9127 15.3584 19.0326 15.2375 19.0355 15.1541C19.0603 14.4173 19.0404 13.6788 19.0757 12.9428C19.1149 12.1265 19.1979 11.3121 19.2626 10.4971C19.2669 10.4436 19.2772 10.3906 19.2883 10.3122C19.6044 10.3122 19.9105 10.2874 20.2106 10.3181C20.6638 10.3644 20.9169 10.715 20.8804 11.1711C20.8128 12.0195 20.7275 12.8676 20.7002 13.7174C20.6885 14.0954 20.7464 14.4723 20.8711 14.8298C21.0451 15.3189 21.5348 15.5286 21.9871 15.4166C22.1009 13.723 22.2141 12.039 22.3284 10.3387C22.4083 10.3233 22.4892 10.3133 22.5704 10.3088C23.5092 10.3237 24.4539 10.2831 25.3851 10.3752C26.3258 10.4682 26.9178 11.3402 26.8355 12.2842C26.7606 13.1436 26.7052 14.0046 26.6695 14.8672C26.6248 15.9843 25.8102 16.8433 24.6861 16.9071C24.37 16.925 24.0466 16.9463 23.7361 16.9015C23.4002 16.8527 23.0754 16.729 22.6745 16.6184ZM23.8588 11.9713C23.7983 12.794 23.74 13.5732 23.6844 14.3526C23.6161 15.3083 23.617 15.3011 24.5817 15.2852C24.8824 15.2802 25.0192 15.1436 25.0399 14.866C25.0599 14.5983 25.0715 14.3301 25.0871 14.062C25.1209 13.481 25.1548 12.9001 25.1888 12.3191C25.203 12.0811 25.0981 11.9649 24.8508 11.9697C24.5351 11.976 24.2194 11.9713 23.8588 11.9713V11.9713Z" fill="#510B76"/>
<path d="M14.9693 10.3071C14.9442 10.7579 14.9271 11.1694 14.8974 11.58C14.8132 12.7415 14.7367 13.9037 14.6324 15.0635C14.546 16.0253 13.6576 16.8118 12.6799 16.8263C12.3628 16.831 12.0456 16.8309 11.7283 16.8261C10.7896 16.8108 10.0008 16.0536 10.0306 15.1294C10.0642 14.089 10.1322 13.0478 10.237 12.0121C10.3274 11.1186 11.2097 10.3863 12.1987 10.3094C12.3001 10.3015 12.4025 10.3071 12.5045 10.3071C13.308 10.307 14.1114 10.3071 14.9693 10.3071ZM13.2291 11.9712C12.8532 11.9712 12.5487 11.9776 12.2447 11.9694C11.9559 11.9616 11.8506 12.0975 11.8342 12.375C11.7878 13.1667 11.7256 13.9575 11.6591 14.7477C11.6398 14.9781 11.6745 15.148 11.9415 15.1899C12.5493 15.2855 12.9448 15.1978 13.0104 14.9481C13.0157 14.915 13.018 14.8814 13.0172 14.8478C13.0621 14.2126 13.1071 13.5774 13.1523 12.9422C13.1747 12.634 13.2009 12.3261 13.2291 11.9712Z" fill="#510B76"/>
<path d="M26.5075 17.3576C26.4878 17.6759 26.4861 18.0001 26.4431 18.3188C26.3956 18.6698 26.0756 18.9635 25.7236 18.9651C24.1967 18.9725 22.6696 18.9651 21.1426 18.9619C21.1225 18.9619 21.1024 18.9463 21.0288 18.9158C21.0591 18.5816 21.0674 18.2261 21.1294 17.88C21.1845 17.5726 21.5016 17.3263 21.8577 17.324C23.3847 17.314 24.9117 17.3227 26.4387 17.326C26.4589 17.3261 26.479 17.344 26.5075 17.3576Z" fill="#FC6719"/>
<path d="M19.4504 8.4979C19.4294 8.78694 19.4023 9.06506 19.3908 9.34383C19.3735 9.76671 19.3519 9.78657 18.8619 9.6996C18.8837 9.40829 18.8994 9.11107 18.9299 8.8154C18.9616 8.50877 18.8455 8.39791 18.5136 8.50496C18.4884 8.83025 18.4488 9.16175 18.4417 9.49406C18.4371 9.7147 18.3281 9.74569 18.1423 9.74954C17.9262 9.75382 17.9003 9.63989 17.915 9.47266C17.9479 9.10538 17.9953 8.73827 18.0036 8.37035C18.0094 8.11632 18.1486 8.0448 18.3584 8.02366C18.4481 8.01471 18.539 8.0145 18.6294 8.01432C19.0193 8.0136 19.4092 8.01313 19.799 8.01488C20.2784 8.01706 20.4385 8.21138 20.379 8.6932C20.3531 8.90387 20.3488 9.11745 20.3404 9.32992C20.324 9.7587 20.3094 9.77202 19.8048 9.71286C19.8279 9.41993 19.8485 9.1237 19.8753 8.82807C19.9017 8.53501 19.7946 8.39997 19.4504 8.4979Z" fill="#510B76"/>
<path d="M15.6935 8.08554C16.119 8.08554 16.522 8.08502 16.925 8.08648C16.959 8.08527 16.9927 8.09263 17.0229 8.10788C17.4673 8.3703 17.3477 8.80045 17.3406 9.19127C17.3353 9.48661 17.1523 9.6808 16.8766 9.7292C16.6314 9.76819 16.3813 9.76731 16.1364 9.72659C15.8386 9.68037 15.599 9.33492 15.6092 8.99383C15.6179 8.70569 15.6612 8.41836 15.6935 8.08554Z" fill="#FC6719"/>
<path d="M18.7638 17.2414C18.7422 17.6284 18.7377 17.9644 18.7021 18.2972C18.6488 18.797 18.2268 19.0502 17.608 18.9732C17.2088 18.9235 16.9921 18.6008 17.032 18.1319C17.0887 17.4667 17.3941 17.1851 18.033 17.2382C18.2675 17.2577 18.5048 17.2414 18.7638 17.2414Z" fill="#510B76"/>
<path d="M20.6676 17.2418C20.6447 17.6356 20.6484 17.9951 20.5972 18.3466C20.528 18.8227 20.0865 19.059 19.4953 18.9728C19.1016 18.9153 18.8963 18.584 18.9379 18.1167C18.9984 17.4405 19.3268 17.1858 19.9527 17.2387C20.1862 17.2583 20.4228 17.2418 20.6676 17.2418Z" fill="#510B76"/>
<path d="M12.8709 8.05471C12.8398 8.48037 12.8367 8.84936 12.7802 9.21035C12.7138 9.63687 12.2556 9.84899 11.6681 9.76014C11.2879 9.7027 11.1131 9.44486 11.1504 8.9975C11.2159 8.21243 11.3872 8.05522 12.1776 8.05479C12.3902 8.05462 12.6026 8.05471 12.8709 8.05471Z" fill="#510B76"/>
<path d="M14.7752 8.05474C14.7426 8.48426 14.7431 8.86434 14.6778 9.23294C14.6039 9.6491 14.1627 9.84346 13.5836 9.76171C13.212 9.70924 13.0488 9.4853 13.0564 9.03811C13.0694 8.26319 13.2843 8.05526 14.0731 8.05474C14.2862 8.05462 14.4994 8.05474 14.7752 8.05474Z" fill="#510B76"/>
<path d="M23.8096 9.03367H22.6838C22.9563 9.4643 23.3303 9.19524 23.6085 9.33756C23.7277 9.51382 23.6766 9.66576 23.3513 9.71935C23.206 9.74029 23.0591 9.74837 22.9123 9.74349C22.3843 9.7363 22.223 9.56646 22.2417 9.04839C22.2437 8.99245 22.2521 8.93681 22.2549 8.88091C22.2922 8.15607 22.526 7.95546 23.263 8.01671C23.6562 8.04941 23.8031 8.20383 23.8092 8.59311C23.8111 8.71535 23.8096 8.83764 23.8096 9.03367ZM23.256 8.72019C23.3 8.71133 23.3404 8.658 23.3284 8.628C23.304 8.57137 23.1674 8.47417 23.0902 8.47721C22.9815 8.48149 22.8021 8.55134 22.7689 8.61023C22.759 8.65 22.7643 8.71531 22.8088 8.72019H23.256Z" fill="#510B76"/>
<path d="M22.0757 9.03367H20.9499C21.2224 9.4643 21.5964 9.19524 21.8746 9.33756C21.9939 9.51382 21.8949 9.70244 21.6175 9.71935C21.4711 9.7283 21.3247 9.74546 21.1784 9.74349C20.6505 9.7363 20.4891 9.56646 20.5078 9.04839C20.5098 8.99245 20.5182 8.93681 20.521 8.88091C20.5583 8.15607 20.7921 7.95546 21.5291 8.01671C21.9223 8.04941 22.0693 8.20383 22.0753 8.59311C22.0772 8.71535 22.0757 8.83764 22.0757 9.03367ZM21.5221 8.72019C21.5661 8.71133 21.6065 8.658 21.5945 8.628C21.5701 8.57137 21.4336 8.47417 21.3563 8.47721C21.2476 8.48149 21.0682 8.55134 21.035 8.61023C21.0251 8.65 21.0304 8.71531 21.0749 8.72019H21.5221Z" fill="#510B76"/>
<path d="M25.7686 8.4207C25.6611 8.15255 25.7739 8.05612 25.9929 8.02933C26.0264 8.02505 26.0601 8.02132 26.0938 8.01841C26.9657 7.94377 27.1664 8.1523 27.0513 9.00632C27.0232 9.21544 27.0075 9.4262 26.9803 9.6935C26.6358 9.70908 26.2915 9.7431 25.9483 9.7345C25.6591 9.72727 25.4972 9.56963 25.5185 9.25589C25.5382 8.96518 25.6289 8.7534 25.9679 8.7448C26.0694 8.74864 26.1711 8.74164 26.2711 8.72391C26.3652 8.70063 26.4651 8.70551 26.5545 8.66369C26.5977 8.40774 26.418 8.47207 26.2809 8.47108C26.1046 8.4695 25.9291 8.43483 25.7686 8.4207ZM26.4784 9.09136C26.4784 9.09136 26.0393 9.07424 26.0329 9.17127C26.0361 9.19789 26.0447 9.2236 26.0581 9.24687C26.0715 9.27014 26.0895 9.29049 26.1111 9.30671C26.1326 9.32293 26.1572 9.33469 26.1835 9.34128C26.2097 9.34788 26.237 9.34917 26.2637 9.34509C26.477 9.32039 26.5686 9.3391 26.4784 9.09132V9.09136Z" fill="#510B76"/>
<path d="M25.391 8.01367H23.9995V8.45157H25.391V8.01367Z" fill="#510B76"/>
<path d="M25.3348 9.28955H23.9434V9.72745H25.3348V9.28955Z" fill="#510B76"/>
<path d="M25.0753 8.14795L23.9434 9.29179L24.2591 9.59832L25.391 8.45449L25.0753 8.14795Z" fill="#510B76"/>
</g>
<defs>
<clipPath id="clip0_634_13127">
<rect width="17.1111" height="11" fill="white" transform="translate(10 8)"/>
</clipPath>
</defs>
</svg>
