<svg width="38" height="26" viewBox="0 0 38 26" fill="none" xmlns="http://www.w3.org/2000/svg">
<rect x="1" y="1" width="36" height="24" rx="4" fill="white" stroke="#E6E5E9" stroke-width="0.65625"/>
<path d="M18.6676 9.12277L16.9715 16.5136H14.8779L16.574 9.12277H18.6676ZM27.3334 13.8863L28.42 11.1117L29.056 13.8863H27.3334ZM29.639 16.5136H31.5471L29.8775 9.12277H28.1285C27.7309 9.12277 27.3864 9.34376 27.2539 9.66296L24.1533 16.5136H26.3264L26.7504 15.4087H29.4005L29.639 16.5136ZM24.2593 14.1073C24.2593 12.1675 21.3442 12.0447 21.3707 11.1853C21.3707 10.9152 21.6622 10.6451 22.2452 10.5715C22.5367 10.5469 23.3583 10.4978 24.2858 10.8907L24.6568 9.31921C24.1533 9.14733 23.5173 9 22.7222 9C20.6816 9 19.2506 10.0067 19.2241 11.4554C19.2241 12.5113 20.2576 13.1251 21.0262 13.4689C21.8212 13.8372 22.1127 14.0582 22.0862 14.3774C22.0862 14.8685 21.4502 15.0894 20.8406 15.0894C19.8071 15.114 19.1976 14.8194 18.7206 14.6229L18.3495 16.2435C18.8266 16.4399 19.7276 16.6364 20.6551 16.6364C22.8282 16.6364 24.2593 15.6296 24.2593 14.1073ZM15.6994 9.12277L12.3603 16.5136H10.1872L8.54411 10.6206C8.43811 10.2523 8.3586 10.1295 8.04059 9.98217C7.53707 9.73663 6.71553 9.49108 6 9.34376L6.053 9.12277H9.57766C10.0282 9.12277 10.4257 9.39287 10.5317 9.88395L11.4062 14.1564L13.5528 9.12277H15.6994Z" fill="#1A1F70"/>
</svg>
