<svg width="36" height="24" viewBox="0 0 36 24" fill="none" xmlns="http://www.w3.org/2000/svg">
<g clip-path="url(#clip0_649_623)">
<rect width="36" height="24" rx="4" fill="#016FD0"/>
<path d="M6.97102 18.9252V13.2873H12.9405L13.581 14.1222L14.2427 13.2873H36V18.5C36 18.5 35.4727 18.9253 34.6885 18.9253H22.6906L21.9685 18.0365V18.9253H19.6022V17.4082C19.6022 17.4082 19.279 17.6199 18.5802 17.6199H17.7747V18.9253H14.192L13.5525 18.0724L12.9031 18.9253L6.97102 18.9252ZM0 9.03805L1.34614 5.89969H3.67419L4.4381 7.65767V5.89969H7.33206L7.78685 7.1703L8.22774 5.89969H21.2186V6.53847C21.2186 6.53847 21.9015 5.89969 23.0238 5.89969L27.2389 5.91445L27.9896 7.64939V5.89969H30.4115L31.078 6.89627V5.89969H33.522V11.5376H31.078L30.4392 10.5378V11.5376H26.8811L26.5232 10.6489H25.5667L25.2147 11.5376H22.8017C21.8359 11.5376 21.2186 10.9119 21.2186 10.9119V11.5376H17.5803L16.8582 10.6489V11.5376H3.32931L2.97172 10.6489H2.01815L1.6632 11.5376H0V9.03805Z" fill="white"/>
<path d="M1.82274 6.59475L0.00708008 10.8162H1.18917L1.52419 9.97089H3.47178L3.80503 10.8162H5.01319L3.19919 6.59475H1.82274ZM2.49449 7.57718L3.08813 9.0544H1.89913L2.49449 7.57718ZM5.13815 10.8155V6.59402L6.81794 6.60025L7.79498 9.32203L8.74861 6.59402H10.415V10.8155H9.35964V7.70495L8.24091 10.8155H7.31535L6.19352 7.70495V10.8155H5.13815ZM11.1371 10.8155V6.59402H14.581V7.5383H12.2036V8.26039H14.5254V9.14915H12.2036V9.89903H14.581V10.8155H11.1371ZM15.192 6.59475V10.8162H16.2474V9.31648H16.6917L17.9571 10.8162H19.2468L17.8582 9.26093C18.4281 9.21284 19.016 8.72371 19.016 7.96429C19.016 7.07596 18.3187 6.59475 17.5405 6.59475H15.192ZM16.2474 7.53902H17.4537C17.7432 7.53902 17.9536 7.76539 17.9536 7.98337C17.9536 8.26381 17.6809 8.42775 17.4694 8.42775H16.2474V7.53902ZM20.5244 10.8155H19.4468V6.59402H20.5244V10.8155ZM23.0795 10.8155H22.8469C21.7215 10.8155 21.0382 9.92884 21.0382 8.72212C21.0382 7.48556 21.7138 6.59402 23.135 6.59402H24.3015V7.59385H23.0924C22.5155 7.59385 22.1075 8.0441 22.1075 8.73253C22.1075 9.55009 22.574 9.89345 23.2461 9.89345H23.5239L23.0795 10.8155ZM25.376 6.59475L23.5603 10.8162H24.7424L25.0774 9.97089H27.025L27.3583 10.8162H28.5664L26.7525 6.59475H25.376ZM26.0478 7.57718L26.6414 9.0544H25.4524L26.0478 7.57718ZM28.6896 10.8155V6.59402H30.0314L31.7447 9.24635V6.59402H32.8001V10.8155H31.5017L29.745 8.09378V10.8155H28.6896ZM7.69328 18.2031V13.9816H11.1371V14.9259H8.75974V15.648H11.0815V16.5368H8.75974V17.2866H11.1371V18.2031H7.69328ZM24.5682 18.2031V13.9816H28.012V14.9259H25.6346V15.648H27.9453V16.5368H25.6346V17.2866H28.0119V18.2031H24.5682ZM11.2708 18.2031L12.9476 16.1184L11.2308 13.9816H12.5605L13.5829 15.3026L14.6088 13.9816H15.8863L14.1922 16.0924L15.8721 18.2031H14.5427L13.5499 16.903L12.5813 18.2031H11.2708ZM15.9974 13.9824V18.2038H17.0805V16.8708H18.1915C19.1315 16.8708 19.844 16.3721 19.844 15.4023C19.844 14.5989 19.2851 13.9824 18.3286 13.9824H15.9974ZM17.0805 14.9371H18.2505C18.5542 14.9371 18.7712 15.1232 18.7712 15.4231C18.7712 15.7048 18.5552 15.9091 18.247 15.9091H17.0805V14.9371ZM20.3022 13.9816V18.2031H21.3576V16.7034H21.802L23.0674 18.2031H24.3571L22.9684 16.6479C23.5383 16.5998 24.1262 16.1106 24.1262 15.3512C24.1262 14.4628 23.4289 13.9816 22.6508 13.9816H20.3022ZM21.3576 14.9259H22.564C22.8534 14.9259 23.0639 15.1523 23.0639 15.3703C23.0639 15.6507 22.7911 15.8146 22.5796 15.8146H21.3576V14.9259ZM28.5008 18.2031V17.2866H30.6129C30.9255 17.2866 31.0608 17.1177 31.0608 16.9325C31.0608 16.755 30.9259 16.5756 30.6129 16.5756H29.6585C28.8289 16.5756 28.3668 16.0702 28.3668 15.3113C28.3668 14.6344 28.7899 13.9816 30.0228 13.9816H32.078L31.6336 14.9315H29.8561C29.5163 14.9315 29.4118 15.1098 29.4118 15.28C29.4118 15.455 29.541 15.648 29.8006 15.648H30.8004C31.7252 15.648 32.1266 16.1726 32.1266 16.8596C32.1266 17.5982 31.6794 18.2031 30.7501 18.2031H28.5008ZM32.3743 18.2031V17.2866H34.4864C34.7989 17.2866 34.9342 17.1177 34.9342 16.9325C34.9342 16.755 34.7994 16.5756 34.4864 16.5756H33.532C32.7023 16.5756 32.2403 16.0702 32.2403 15.3113C32.2403 14.6344 32.6634 13.9816 33.8962 13.9816H35.9514L35.5071 14.9315H33.7296C33.3898 14.9315 33.2852 15.1098 33.2852 15.28C33.2852 15.455 33.4144 15.648 33.674 15.648H34.6739C35.5987 15.648 36 16.1726 36 16.8596C36 17.5982 35.5528 18.2031 34.6235 18.2031H32.3743Z" fill="#016FD0"/>
</g>
<defs>
<clipPath id="clip0_649_623">
<rect width="36" height="24" rx="4" fill="white"/>
</clipPath>
</defs>
</svg>
