<?xml version="1.0" encoding="UTF-8"?>
<svg width="38" height="26" viewBox="0 0 38 26" fill="none" xmlns="http://www.w3.org/2000/svg">
<rect x="1" y="1" width="36" height="24" rx="4" fill="white" stroke="#E6E5E9" stroke-width="0.65625"/>
<path d="M12.0253 10.1078C12.2761 9.80961 12.4462 9.40919 12.4013 9C12.0343 9.01736 11.5863 9.23026 11.327 9.52872C11.0941 9.7843 10.888 10.2015 10.9417 10.5935C11.3538 10.6275 11.7655 10.3977 12.0253 10.1078Z" fill="black"/>
<path d="M12.3969 10.67C11.7984 10.6361 11.2896 10.9929 11.0039 10.9929C10.7179 10.9929 10.2803 10.6871 9.80697 10.6953C9.19091 10.7039 8.61928 11.0351 8.30665 11.5619C7.66364 12.6156 8.13696 14.1787 8.76226 15.0369C9.06592 15.4615 9.43188 15.929 9.91409 15.9122C10.3697 15.8952 10.5483 15.6317 11.1021 15.6317C11.6555 15.6317 11.8164 15.9122 12.2986 15.9037C12.7988 15.8952 13.1115 15.4789 13.4151 15.0539C13.7635 14.5699 13.9061 14.1026 13.9151 14.0769C13.9061 14.0684 12.9506 13.7199 12.9418 12.6749C12.9328 11.7999 13.6919 11.3837 13.7276 11.3579C13.2989 10.7551 12.6291 10.6871 12.3969 10.67Z" fill="black"/>
<path d="M17.6074 9.48584C18.9081 9.48584 19.8138 10.3383 19.8138 11.5794C19.8138 12.825 18.8894 13.6818 17.5748 13.6818H16.1347V15.8593H15.0942V9.48584H17.6074V9.48584ZM16.1347 12.8514H17.3286C18.2345 12.8514 18.75 12.3877 18.75 11.5838C18.75 10.78 18.2345 10.3207 17.3332 10.3207H16.1347V12.8514Z" fill="black"/>
<path d="M20.0854 14.5387C20.0854 13.726 20.7404 13.2269 21.9019 13.1651L23.2396 13.09V12.7323C23.2396 12.2155 22.8726 11.9063 22.2596 11.9063C21.6788 11.9063 21.3164 12.1713 21.2282 12.5865H20.2806C20.3363 11.7472 21.0888 11.1289 22.2967 11.1289C23.4812 11.1289 24.2384 11.7252 24.2384 12.6571V15.8593H23.2767V15.0952H23.2536C22.9703 15.612 22.3524 15.9388 21.7114 15.9388C20.7544 15.9388 20.0854 15.3735 20.0854 14.5387ZM23.2396 14.1191V13.7526L22.0365 13.8232C21.4372 13.863 21.0981 14.1147 21.0981 14.5122C21.0981 14.9185 21.4512 15.1836 21.99 15.1836C22.6915 15.1836 23.2396 14.7242 23.2396 14.1191Z" fill="black"/>
<path d="M25.1462 17.5687V16.7958C25.2204 16.8134 25.3876 16.8134 25.4713 16.8134C25.9358 16.8134 26.1867 16.6279 26.3399 16.1509C26.3399 16.1421 26.4283 15.8683 26.4283 15.8638L24.6631 11.2129H25.75L26.9858 14.9937H27.0042L28.24 11.2129H29.2991L27.4687 16.1023C27.0508 17.2286 26.5677 17.5908 25.555 17.5908C25.4713 17.5908 25.2204 17.5819 25.1462 17.5687Z" fill="black"/>
</svg>
