<svg width="38" height="26" viewBox="0 0 38 26" fill="none" xmlns="http://www.w3.org/2000/svg">
<rect x="1" y="1" width="36" height="24" rx="4" fill="white" stroke="#E6E5E9" stroke-width="0.65625"/>
<path d="M17.1279 13.4036H7V16.6308H17.1279V13.4036Z" fill="#84B740"/>
<path d="M17.1279 9H7V12.2302H17.1279V9Z" fill="#259BD6"/>
<path d="M27.2561 15.9754L27.211 15.984C27.0546 16.0128 26.9975 16.0243 26.8832 16.0243C26.6186 16.0243 26.3059 15.8948 26.3059 15.2851C26.3059 14.9715 26.36 14.5545 26.8531 14.5545H26.8562C26.9403 14.5602 27.0366 14.5688 27.217 14.6206L27.2561 14.6321V15.9754ZM27.3373 12.9351L27.2561 12.9495V14.077L27.1839 14.0569L27.1629 14.0511C27.0817 14.0281 26.8952 13.9763 26.7148 13.9763C25.7285 13.9763 25.521 14.6897 25.521 15.2879C25.521 16.1077 26.0021 16.5794 26.8411 16.5794C27.196 16.5794 27.4576 16.5449 27.7222 16.4615C27.9658 16.3867 28.053 16.2803 28.053 16.053V12.8171C27.8184 12.8574 27.5748 12.8977 27.3373 12.9351Z" fill="#27292D"/>
<path d="M30.1883 15.995L30.1462 16.0065L29.9958 16.0439C29.8545 16.0784 29.7282 16.0986 29.632 16.0986C29.4004 16.0986 29.2621 15.9893 29.2621 15.8023C29.2621 15.6815 29.3192 15.4773 29.6981 15.4773H30.1883V15.995ZM29.8425 13.9614C29.5387 13.9614 29.226 14.0132 28.8381 14.1283L28.5855 14.2002L28.6697 14.7467L28.9163 14.669C29.1749 14.5885 29.4966 14.5367 29.7372 14.5367C29.8455 14.5367 30.1762 14.5367 30.1762 14.879V15.0286H29.7162C28.8772 15.0286 28.4893 15.2846 28.4893 15.8339C28.4893 16.3028 28.8471 16.5847 29.4485 16.5847C29.635 16.5847 29.8936 16.5502 30.1161 16.4984L30.1281 16.4955L30.1402 16.4984L30.2153 16.5099C30.4499 16.5502 30.6935 16.5904 30.931 16.6336V14.8387C30.931 14.2577 30.5642 13.9614 29.8425 13.9614Z" fill="#27292D"/>
<path d="M24.345 15.995L24.3029 16.0065L24.1526 16.0439C24.0112 16.0784 23.8879 16.0986 23.7887 16.0986C23.5571 16.0986 23.4188 15.9893 23.4188 15.8023C23.4188 15.6815 23.476 15.4773 23.8518 15.4773H24.342L24.345 15.995ZM24.0022 13.9614C23.6955 13.9614 23.3857 14.0132 22.9978 14.1283L22.7452 14.2002L22.8294 14.7467L23.076 14.669C23.3346 14.5885 23.6564 14.5367 23.897 14.5367C24.0052 14.5367 24.336 14.5367 24.336 14.879V15.0286H23.8759C23.0369 15.0286 22.646 15.2846 22.646 15.8339C22.646 16.3028 23.0038 16.5847 23.6083 16.5847C23.7947 16.5847 24.0533 16.5502 24.2758 16.4984L24.2879 16.4955L24.2999 16.4984L24.3721 16.5099C24.6096 16.5502 24.8502 16.5904 25.0878 16.6364V14.8416C25.0908 14.2548 24.7239 13.9614 24.0022 13.9614Z" fill="#27292D"/>
<path d="M21.1786 13.9677C20.7967 13.9677 20.4809 14.0885 20.3636 14.1403L20.3336 14.1547L20.3065 14.1345C20.1441 14.0224 19.9066 13.9648 19.5758 13.9648C19.2841 13.9648 19.0105 14.0051 18.7127 14.0885C18.4571 14.1633 18.3579 14.2812 18.3579 14.5027V16.5536H19.1578V14.658L19.1969 14.6465C19.3593 14.5948 19.4555 14.5861 19.5487 14.5861C19.7803 14.5861 19.8975 14.7041 19.8975 14.9342V16.5564H20.6854V14.9025C20.6854 14.8047 20.6644 14.7472 20.6614 14.7357L20.6343 14.6868L20.6884 14.6638C20.8087 14.612 20.941 14.5861 21.0793 14.5861C21.2387 14.5861 21.4282 14.6465 21.4282 14.9342V16.5564H22.213V14.8594C22.213 14.2582 21.8762 13.9677 21.1786 13.9677Z" fill="#27292D"/>
<path d="M29.5989 11.1057C29.4816 11.1057 29.2861 11.0942 29.1328 11.0655L29.0877 11.0568V9.94944C29.0877 9.8574 29.0696 9.79987 29.0666 9.79124L29.0426 9.74522L29.0937 9.72509C29.1057 9.71933 29.1177 9.71646 29.1328 9.71071L29.1418 9.70495C29.1598 9.6992 29.1779 9.69345 29.1959 9.68769C29.2049 9.68482 29.211 9.68194 29.217 9.68194C29.3944 9.63592 29.5568 9.64167 29.6289 9.63592H29.632C30.1221 9.63592 30.1792 10.053 30.1792 10.3665C30.1762 10.9763 29.8605 11.1057 29.5989 11.1057ZM29.5959 9.00024C29.5899 9.00024 29.5808 9.00024 29.5748 9.00024C29.1147 9.00024 28.6426 9.12105 28.4742 9.35691C28.384 9.47197 28.3329 9.61579 28.3299 9.78549V10.9274C28.3299 11.0252 28.3088 11.0626 28.3058 11.0712L28.2788 11.1201H26.8263V10.3262H26.8233C26.8053 9.48923 26.288 9.02901 25.5393 9.02901H25.4521H24.8086C24.7785 9.23323 24.7544 9.37705 24.7244 9.58127H25.4521C25.834 9.58127 26.0355 9.89192 26.0355 10.3694V11.169L25.9843 11.1431C25.9753 11.1403 25.9122 11.1201 25.8129 11.1201H24.556C24.5319 11.2726 24.5018 11.471 24.4688 11.6695H28.3329C28.4652 11.6436 28.6186 11.6206 28.7509 11.6005C28.9463 11.6925 29.3102 11.7414 29.5598 11.7414C30.3988 11.7414 30.943 11.2035 30.943 10.3751C30.94 9.55538 30.4138 9.0175 29.5959 9.00024Z" fill="#27292D"/>
<path d="M22.8205 12.0064H22.8565C23.6955 12.0064 24.0864 11.7418 24.0864 11.0888C24.0864 10.62 23.7286 10.2461 23.1272 10.2461H22.3544C22.1228 10.2461 21.9845 10.1195 21.9845 9.90664C21.9845 9.76282 22.0416 9.58449 22.4205 9.58449H24.1105C24.1466 9.37451 24.1646 9.2422 24.1977 9.03223H22.4416C21.6236 9.03223 21.2117 9.36013 21.2117 9.90664C21.2117 10.4474 21.5695 10.7293 22.1709 10.7293H22.9437C23.1753 10.7293 23.3136 10.9047 23.3136 11.0888C23.3136 11.2096 23.2565 11.4599 22.8806 11.4599H22.7513L20.2764 11.4541H19.8254C19.4435 11.4541 19.1758 11.247 19.1758 10.7667V10.4359C19.1758 9.9354 19.3833 9.62476 19.8254 9.62476H20.5591C20.5922 9.41191 20.6132 9.27672 20.6433 9.07537H19.7291H19.6419C18.8932 9.07537 18.376 9.55572 18.3579 10.3927V10.4244V10.7667C18.376 11.6037 18.8932 12.0035 19.6419 12.0035H19.7291H20.3727L21.7138 12.0064H22.5137H22.8205Z" fill="#27292D"/>
</svg>
