<svg width="38" height="26" viewBox="0 0 38 26" fill="none" xmlns="http://www.w3.org/2000/svg">
<rect x="1" y="1" width="36" height="24" rx="4" fill="white" stroke="#E6E5E9" stroke-width="0.65625"/>
<path d="M21.434 9.17725H16.5674V17.8204H21.434V9.17725Z" fill="#FF5F00"/>
<path d="M16.8763 13.4987C16.8763 11.8189 17.6642 10.2155 19.0083 9.1771C16.5827 7.29883 13.0912 7.71113 11.1909 10.1086C9.29061 12.5061 9.70775 15.942 12.1333 17.8202C14.1572 19.3931 16.9844 19.3931 19.0083 17.8202C17.6642 16.7818 16.8763 15.1937 16.8763 13.4987Z" fill="#EB001B"/>
<path d="M28.0002 13.4987C28.0002 16.5375 25.5128 18.9961 22.4384 18.9961C21.187 18.9961 19.9819 18.5838 19.0086 17.8202C21.4187 15.942 21.8359 12.4908 19.9356 10.1086C19.6575 9.75739 19.3485 9.45197 18.9932 9.1771C21.4033 7.29883 24.9103 7.71113 26.8106 10.1086C27.5831 11.0707 28.0002 12.2618 28.0002 13.4987Z" fill="#F79E1B"/>
<path d="M27.4751 16.9042V16.721H27.5525V16.6904H27.3667V16.721H27.4441V16.9042H27.4751ZM27.8312 16.9042V16.6904H27.7692L27.7073 16.8431L27.6454 16.6904H27.5989V16.9042H27.6454V16.7515L27.7073 16.8889H27.7538L27.8157 16.7515V16.9195L27.8312 16.9042Z" fill="#F79E1B"/>
</svg>
