<svg width="16" height="16" viewBox="0 0 16 16" fill="none" xmlns="http://www.w3.org/2000/svg">
<path fill-rule="evenodd" clip-rule="evenodd" d="M11.5648 4.09724L10.6667 1.33331L9.76865 4.09724H6.86248L9.21362 5.80545L8.31557 8.56938L10.6667 6.86118L13.0178 8.56938L12.1198 5.80545L14.4709 4.09724H11.5648ZM10.6667 12C11.8219 12 12.9085 11.7061 13.8559 11.1891C12.7251 13.261 10.5267 14.6666 8.00004 14.6666C4.31814 14.6666 1.33337 11.6819 1.33337 7.99996C1.33337 5.4733 2.73898 3.27493 4.81089 2.14414C4.29388 3.09146 4.00004 4.17806 4.00004 5.3333C4.00004 9.01519 6.98481 12 10.6667 12Z" fill="#31CC7E"/>
</svg>
