<svg width="64" height="42" viewBox="0 0 64 42" fill="none" xmlns="http://www.w3.org/2000/svg">
<g clip-path="url(#clip0_2182_55227)">
<rect width="64" height="42" rx="6" fill="#33FFB1"/>
<path d="M48.9807 31.0094L47.6142 36.9866H45.9274L47.2939 31.0094H48.9807ZM55.9629 34.8619L56.8383 32.6179L57.3507 34.8619H55.9629ZM57.8205 36.9866H59.3578L58.0127 31.0094H56.6034C56.2831 31.0094 56.0056 31.1882 55.8988 31.4463L53.4006 36.9866H55.1515L55.4931 36.093H57.6283L57.8205 36.9866ZM53.486 35.0406C53.486 33.4718 51.1373 33.3725 51.1586 32.6775C51.1586 32.4591 51.3935 32.2406 51.8633 32.1811C52.0981 32.1612 52.76 32.1215 53.5074 32.4392L53.8063 31.1683C53.4006 31.0293 52.8882 30.9102 52.2476 30.9102C50.6035 30.9102 49.4505 31.7243 49.4291 32.8959C49.4291 33.7498 50.2618 34.2463 50.8811 34.5243C51.5216 34.8221 51.7565 35.0009 51.7351 35.259C51.7351 35.6562 51.2227 35.8349 50.7316 35.8349C49.8989 35.8548 49.4078 35.6165 49.0234 35.4576L48.7245 36.7682C49.1088 36.9271 49.8348 37.0859 50.5821 37.0859C52.333 37.0859 53.486 36.2718 53.486 35.0406ZM46.5893 31.0094L43.8989 36.9866H42.148L40.8242 32.2208C40.7388 31.9229 40.6748 31.8236 40.4185 31.7045C40.0128 31.5059 39.3509 31.3073 38.7744 31.1882L38.8171 31.0094H41.6569C42.0199 31.0094 42.3402 31.2279 42.4256 31.625L43.1302 35.0803L44.8598 31.0094H46.5893Z" fill="white"/>
<path d="M64 8.62057L59.6914 25.002H56.4134L57.4859 20.9714H54.4906L51.2754 8.63106H54.7838L57.5696 20.6776L60.7115 8.63106V8.62057H64ZM9.21617 10.373V8.03293L2.34593 9.08228C4.28342 8.67304 5.39355 7.12 5.39355 5.56696V4.60156H1.91654V9.14524L0 9.44956V11.7896L1.91654 11.4958V12.5871L0.0104729 12.8809V15.116L1.91654 14.8222V17.5086C2.03175 19.8486 3.57127 21.2442 6.09524 21.2442C6.99591 21.2442 7.89658 21.0554 8.72394 20.6986L8.74489 20.6881V17.7604L8.703 17.7814C8.21077 18.0227 7.66618 18.1487 7.12158 18.1487C5.94862 18.1487 5.20504 17.9598 5.20504 17.0049V14.308L9.22664 13.6889V11.4538L5.20504 12.0729V10.9816L9.21617 10.373ZM19.5634 9.16623L22.8519 8.66254V20.9924H19.5634V17.0678C19.4377 19.6807 17.8144 21.2337 15.1648 21.2337C13.6462 21.2337 12.3895 20.6461 11.5412 19.5338C10.6929 18.4215 10.2425 16.795 10.2425 14.8117C10.2425 12.8285 10.6929 11.202 11.5412 10.0897C12.3895 8.97735 13.6462 8.38971 15.1648 8.38971C17.8144 8.38971 19.4377 9.93226 19.5634 12.5346V9.16623ZM19.7415 14.8117C19.7415 13.6889 19.4587 12.734 18.9246 12.0519C18.38 11.3594 17.5945 10.9921 16.6624 10.9921C14.7354 10.9921 13.5834 12.4192 13.5834 14.8117C13.5834 17.2042 14.7354 18.6104 16.6624 18.6104C18.5371 18.6104 19.7415 17.1203 19.7415 14.8117ZM37.3778 14.8117C37.3778 18.8307 35.5346 21.2337 32.4346 21.2337C29.785 21.2337 28.1617 19.6912 28.036 17.0678V20.9924H24.7475V5.57746L28.036 5.07377V12.5346C28.1617 9.93226 29.785 8.38971 32.4346 8.38971C35.5346 8.38971 37.3778 10.7927 37.3778 14.8117ZM34.0265 14.8117C34.0265 12.4192 32.8745 10.9921 30.9475 10.9921C30.0154 10.9921 29.2299 11.3594 28.6853 12.0519C28.1512 12.7235 27.8684 13.6784 27.8684 14.8117C27.8684 17.1203 29.0728 18.6104 30.9475 18.6104C32.8745 18.6104 34.0265 17.1938 34.0265 14.8117ZM51.2649 14.8117C51.2649 18.8307 49.4217 21.2337 46.3217 21.2337C43.6721 21.2337 42.0488 19.6912 41.9231 17.0678V20.9924H38.6451V5.57746L41.9336 5.07377V12.5346C42.0592 9.93226 43.6825 8.38971 46.3322 8.38971C49.4217 8.38971 51.2754 10.7927 51.2649 14.8117ZM47.9136 14.8117C47.9136 12.4192 46.7616 10.9921 44.8346 10.9921C43.9025 10.9921 43.117 11.3594 42.5724 12.0519C42.0383 12.7235 41.7555 13.6784 41.7555 14.8117C41.7555 17.1203 42.9599 18.6104 44.8346 18.6104C46.7616 18.6104 47.9136 17.1938 47.9136 14.8117Z" fill="#1FCC95"/>
</g>
<defs>
<clipPath id="clip0_2182_55227">
<rect width="64" height="42" rx="6" fill="white"/>
</clipPath>
</defs>
</svg>
