<svg width="42" height="28" viewBox="0 0 42 28" fill="none" xmlns="http://www.w3.org/2000/svg">
<g clip-path="url(#clip0_2182_55230)">
<rect x="0.5" y="0.5" width="41" height="27" rx="3.5" fill="#33FFB1" stroke="#3BEBB3"/>
<path d="M31.4399 20.0076L30.5289 23.9924H29.4044L30.3154 20.0076H31.4399ZM36.0947 22.5759L36.6783 21.0799L37.02 22.5759H36.0947ZM37.3331 23.9924H38.358L37.4612 20.0076H36.5217C36.3082 20.0076 36.1232 20.1267 36.052 20.2988L34.3865 23.9924H35.5538L35.7815 23.3967H37.205L37.3331 23.9924ZM34.4435 22.695C34.4435 21.6492 32.8776 21.583 32.8919 21.1196C32.8919 20.974 33.0485 20.8284 33.3616 20.7887C33.5182 20.7754 33.9595 20.749 34.4577 20.9608L34.657 20.1135C34.3865 20.0208 34.0449 19.9414 33.6179 19.9414C32.5218 19.9414 31.7531 20.4842 31.7389 21.2653C31.7389 21.8345 32.294 22.1655 32.7068 22.3508C33.1339 22.5494 33.2905 22.6685 33.2762 22.8406C33.2762 23.1054 32.9346 23.2246 32.6072 23.2246C32.052 23.2378 31.7246 23.0789 31.4684 22.973L31.2691 23.8468C31.5254 23.9527 32.0093 24.0586 32.5075 24.0586C33.6748 24.0586 34.4435 23.5158 34.4435 22.695ZM29.8457 20.0076L28.0521 23.9924H26.8848L26.0023 20.8152C25.9453 20.6166 25.9026 20.5504 25.7318 20.4709C25.4614 20.3386 25.0201 20.2062 24.6357 20.1267L24.6642 20.0076H26.5574C26.7994 20.0076 27.0129 20.1532 27.0699 20.418L27.5396 22.7215L28.6926 20.0076H29.8457Z" fill="white"/>
<path d="M42.0017 6.19411L39.1741 17.1753H37.0228L37.7267 14.4734H35.7609L33.6509 6.20115H35.9534L37.7816 14.2764L39.8436 6.20115V6.19411H42.0017ZM6.04836 7.36883V5.8002L1.53958 6.50362C2.81111 6.22928 3.53967 5.18822 3.53967 4.14715V3.5H1.25778V6.54582L0 6.74982V8.31845L1.25778 8.12149V8.85305L0.00687314 9.05001V10.5483L1.25778 10.3513V12.1521C1.33339 13.7207 2.34374 14.6563 4.00017 14.6563C4.59126 14.6563 5.18235 14.5297 5.72532 14.2905L5.73907 14.2835V12.3209L5.71158 12.335C5.38854 12.4968 5.03114 12.5812 4.67373 12.5812C3.90394 12.5812 3.41595 12.4546 3.41595 11.8145V10.0067L6.05523 9.59165V8.09336L3.41595 8.50838V7.77682L6.04836 7.36883ZM12.839 6.55989L14.9972 6.22225V14.4875H12.839V11.8567C12.7565 13.6082 11.6912 14.6493 9.9523 14.6493C8.9557 14.6493 8.13092 14.2553 7.5742 13.5097C7.01747 12.7641 6.72193 11.6738 6.72193 10.3443C6.72193 9.01484 7.01747 7.92453 7.5742 7.17891C8.13092 6.43328 8.9557 6.03936 9.9523 6.03936C11.6912 6.03936 12.7565 7.07339 12.839 8.81788V6.55989ZM12.9559 10.3443C12.9559 9.59165 12.7703 8.95153 12.4198 8.49431C12.0624 8.03005 11.5469 7.78385 10.9352 7.78385C9.67051 7.78385 8.91446 8.74051 8.91446 10.3443C8.91446 11.9481 9.67051 12.8907 10.9352 12.8907C12.1655 12.8907 12.9559 11.8918 12.9559 10.3443ZM24.5302 10.3443C24.5302 13.0384 23.3206 14.6493 21.2861 14.6493C19.5472 14.6493 18.4819 13.6152 18.3994 11.8567V14.4875H16.2412V4.15418L18.3994 3.81654V8.81788C18.4819 7.07339 19.5472 6.03936 21.2861 6.03936C23.3206 6.03936 24.5302 7.6502 24.5302 10.3443ZM22.3308 10.3443C22.3308 8.74051 21.5748 7.78385 20.3101 7.78385C19.6984 7.78385 19.1829 8.03005 18.8255 8.49431C18.475 8.9445 18.2894 9.58461 18.2894 10.3443C18.2894 11.8918 19.0798 12.8907 20.3101 12.8907C21.5748 12.8907 22.3308 11.9411 22.3308 10.3443ZM33.644 10.3443C33.644 13.0384 32.4343 14.6493 30.3999 14.6493C28.661 14.6493 27.5957 13.6152 27.5132 11.8567V14.4875H25.3619V4.15418L27.52 3.81654V8.81788C27.6025 7.07339 28.6679 6.03936 30.4068 6.03936C32.4343 6.03936 33.6509 7.6502 33.644 10.3443ZM31.4446 10.3443C31.4446 8.74051 30.6886 7.78385 29.4239 7.78385C28.8122 7.78385 28.2967 8.03005 27.9393 8.49431C27.5888 8.9445 27.4032 9.58461 27.4032 10.3443C27.4032 11.8918 28.1936 12.8907 29.4239 12.8907C30.6886 12.8907 31.4446 11.9411 31.4446 10.3443Z" fill="#1FCC95"/>
</g>
<defs>
<clipPath id="clip0_2182_55230">
<rect width="42" height="28" fill="white"/>
</clipPath>
</defs>
</svg>
