<svg width="15" height="15" viewBox="0 0 15 15" fill="none" xmlns="http://www.w3.org/2000/svg">
<path fill-rule="evenodd" clip-rule="evenodd" d="M13.125 8.73603C13.0742 9.23966 12.9415 9.72 12.7407 10.1624L8.49206 11.0604V8.3702L7.16855 8.64987V10.142C7.16855 10.2783 7.12691 10.4051 7.05546 10.5101L6.36713 11.5246C6.1964 11.7717 5.9338 11.9513 5.62827 12.0145L1.875 12.8074C1.92584 12.3038 2.05854 11.8234 2.25929 11.381L5.84504 10.6235V8.92954L2.49918 9.63643C2.55012 9.1328 2.68292 8.65246 2.88367 8.21002L5.84504 7.58442V2.35426C6.21111 1.90983 6.66146 1.53295 7.16855 1.25V7.30485L8.49206 7.02518V3.01219C8.85814 2.56776 9.30848 2.19099 9.81557 1.90794V6.74541L13.1249 6.04628C13.0741 6.54991 12.9414 7.03025 12.7406 7.47269L9.81567 8.09063V9.43575L13.125 8.73603ZM8.49236 13.75C8.5432 13.2463 8.67591 12.7661 8.87666 12.3236L13.125 11.4258C13.0741 11.9294 12.9415 12.4097 12.7407 12.8522L8.49236 13.75Z" fill="white"/>
</svg>
