<svg width="21" height="21" viewBox="0 0 21 21" fill="none" xmlns="http://www.w3.org/2000/svg">
<path fill-rule="evenodd" clip-rule="evenodd" d="M18.375 12.2304C18.3038 12.9355 18.118 13.608 17.837 14.2274L11.8889 15.4846V11.7183L10.036 12.1098V14.1989C10.036 14.3897 9.97768 14.5671 9.87764 14.7141L8.91399 16.1344C8.67496 16.4804 8.30732 16.7318 7.87958 16.8203L2.625 17.9304C2.69617 17.2253 2.88196 16.5528 3.16301 15.9334L8.18305 14.8729V12.5014L3.49885 13.491C3.57016 12.7859 3.75608 12.1134 4.03714 11.494L8.18305 10.6182V3.29596C8.69556 2.67376 9.32604 2.14613 10.036 1.75V10.2268L11.8889 9.83525V4.21707C12.4014 3.59487 13.0319 3.06739 13.7418 2.67111V9.44357L18.3749 8.46479C18.3037 9.16987 18.1179 9.84235 17.8368 10.4618L13.7419 11.3269V13.2101L18.375 12.2304ZM11.8893 19.25C11.9605 18.5449 12.1463 17.8725 12.4273 17.253L18.375 15.9961C18.3037 16.7011 18.1181 17.3736 17.837 17.993L11.8893 19.25Z" fill="white"/>
</svg>
