<svg width="35" height="35" viewBox="0 0 35 35" fill="none" xmlns="http://www.w3.org/2000/svg">
<path fill-rule="evenodd" clip-rule="evenodd" d="M30.625 20.3839C30.5064 21.559 30.1967 22.6798 29.7283 23.7122L29.7281 23.7117L19.8148 25.8075V19.5303L16.7266 20.1829V23.6646C16.7266 23.9826 16.6295 24.2779 16.4627 24.5229V24.5233L14.8566 26.8905C14.4583 27.4672 13.8455 27.8862 13.1326 28.0336L4.375 29.8838C4.49362 28.7087 4.80326 27.5879 5.27169 26.5555L13.6384 24.788V20.8354L5.83141 22.4848C5.95027 21.3097 6.26014 20.1889 6.72857 19.1566L13.6384 17.6968V5.4931C14.4926 4.4561 15.5434 3.57673 16.7266 2.9165V17.0445L19.8148 16.3919V7.02828C20.669 5.99129 21.7198 5.11215 22.903 4.45169V15.7391L30.6248 14.1078C30.5061 15.283 30.1965 16.4038 29.7281 17.4361L22.9032 18.878V22.0166L30.625 20.3839ZM19.8155 32.0831C19.9341 30.908 20.2438 29.7874 20.7122 28.7548L30.625 26.6599C30.5062 27.8351 30.1968 28.9559 29.7283 29.9882L19.8155 32.0831Z" fill="#7F90A3"/>
</svg>
