<svg width="14" height="14" viewBox="0 0 14 14" fill="none" xmlns="http://www.w3.org/2000/svg">
<path fill-rule="evenodd" clip-rule="evenodd" d="M12.25 8.15371C12.2025 8.62376 12.0787 9.07208 11.8913 9.48503L7.92592 10.3232V7.81227L6.69064 8.0733V9.46599C6.69064 9.5932 6.65179 9.71151 6.5851 9.80947L5.94266 10.7564C5.78331 10.987 5.53822 11.1546 5.25305 11.2136L1.75 11.9537C1.79745 11.4836 1.9213 11.0353 2.10867 10.6224L5.45537 9.91533V8.33432L2.33257 8.99408C2.38011 8.52403 2.50406 8.07571 2.69143 7.66277L5.45537 7.07887V2.19739C5.79704 1.78259 6.21736 1.43084 6.69064 1.16675V6.81794L7.92592 6.55691V2.81146C8.2676 2.39666 8.68792 2.045 9.1612 1.78082V6.29579L12.2499 5.64328C12.2025 6.11333 12.0786 6.56165 11.8912 6.97459L9.16129 7.55134V8.80679L12.25 8.15371ZM7.92621 12.8334C7.97366 12.3633 8.09751 11.9151 8.28488 11.5021L12.25 10.6641C12.2025 11.1342 12.0787 11.5825 11.8913 11.9954L7.92621 12.8334Z" fill="white"/>
</svg>
