<svg width="13" height="14" viewBox="0 0 13 14" fill="none" xmlns="http://www.w3.org/2000/svg">
<path fill-rule="evenodd" clip-rule="evenodd" d="M11.375 8.07115C11.3309 8.50762 11.2159 8.92392 11.0419 9.30737L11.0419 9.30719L7.35978 10.0856V7.75409L6.21274 7.99647V9.28969C6.21274 9.40782 6.17666 9.5175 6.11473 9.60847V9.60864L5.51818 10.4879C5.37022 10.7021 5.14263 10.8577 4.87783 10.9125L1.625 11.5997C1.66906 11.1632 1.78407 10.7469 1.95805 10.3635L5.0657 9.70694V8.23885L2.16595 8.85149C2.2101 8.41501 2.3252 7.99872 2.49918 7.61527L5.0657 7.07308V2.54027C5.38297 2.1551 5.77326 1.82848 6.21274 1.58325V6.83079L7.35978 6.58841V3.11048C7.67705 2.72531 8.06735 2.39878 8.50683 2.15346V6.34594L11.3749 5.74003C11.3309 6.1765 11.2158 6.5928 11.0419 6.97625L8.50692 7.5118V8.67757L11.375 8.07115ZM7.36005 12.4166C7.40411 11.9801 7.51912 11.5639 7.6931 11.1803L11.375 10.4022C11.3309 10.8387 11.2159 11.255 11.042 11.6385L7.36005 12.4166Z" fill="#54545C"/>
</svg>
