<svg width="25" height="25" viewBox="0 0 25 25" fill="none" xmlns="http://www.w3.org/2000/svg">
<path fill-rule="evenodd" clip-rule="evenodd" d="M21.875 14.5602C21.7903 15.3996 21.5691 16.2002 21.2345 16.9376L21.2343 16.9372L14.1534 18.4342V13.9505L11.9476 14.4166V16.9036C11.9476 17.1307 11.8782 17.3417 11.7591 17.5166V17.5169L10.6119 19.2078C10.3273 19.6197 9.88967 19.919 9.38045 20.0243L3.125 21.3459C3.20973 20.5065 3.4309 19.7059 3.76549 18.9685L9.74172 17.706V14.8827L4.1653 16.0609C4.25019 15.2215 4.47153 14.4209 4.80612 13.6835L9.74172 12.6409V3.92392C10.3519 3.18321 11.1024 2.55509 11.9476 2.0835V12.1749L14.1534 11.7088V5.02048C14.7636 4.27977 15.5141 3.65181 16.3593 3.18006V11.2425L21.8748 10.0773C21.7901 10.9167 21.5689 11.7172 21.2343 12.4546L16.3595 13.4845V15.7264L21.875 14.5602ZM14.1539 22.9168C14.2387 22.0774 14.4598 21.277 14.7944 20.5394L21.875 19.0431C21.7901 19.8825 21.5691 20.683 21.2345 21.4204L14.1539 22.9168Z" fill="#CD2A3E"/>
</svg>
