<svg width="16" height="16" viewBox="0 0 16 16" fill="none" xmlns="http://www.w3.org/2000/svg">
<path fill-rule="evenodd" clip-rule="evenodd" d="M2.22734 6.2302C2.50865 5.9489 2.66668 5.56737 2.66668 5.16954V4.16668C2.66668 3.33825 3.33826 2.66668 4.16668 2.66668H5.16955C5.56737 2.66668 5.94891 2.50864 6.23021 2.22734L6.93935 1.5182C7.52514 0.932411 8.47488 0.932411 9.06067 1.5182L9.76981 2.22734C10.0511 2.50864 10.4326 2.66668 10.8305 2.66668H12C12.5295 2.66668 12.987 2.97536 13.2022 3.4226L7.80462 8.82016L5.31004 6.32557L4.13153 7.50409L6.62611 9.99867L7.80462 11.1772L8.98313 9.99867L13.2621 5.71967L14.7614 7.21896C15.1928 7.65032 15.1928 8.3497 14.7614 8.78106L13.7727 9.7698C13.4914 10.0511 13.3334 10.4326 13.3334 10.8305V11.8333C13.3334 12.6618 12.6618 13.3333 11.8334 13.3333H10.8305C10.4326 13.3333 10.0511 13.4914 9.76981 13.7727L9.06067 14.4818C8.47488 15.0676 7.52514 15.0676 6.93935 14.4818L6.23021 13.7727C5.94891 13.4914 5.56738 13.3333 5.16955 13.3333H4.16669C3.33826 13.3333 2.66668 12.6618 2.66668 11.8333V10.8305C2.66668 10.4327 2.50865 10.0511 2.22734 9.76982L1.5182 9.06067C0.932411 8.47488 0.932411 7.52514 1.5182 6.93935L2.22734 6.2302Z" fill="#1D2329"/>
</svg>
