<svg width="24" height="25" viewBox="0 0 24 25" fill="none" xmlns="http://www.w3.org/2000/svg">
<path fill-rule="evenodd" clip-rule="evenodd" d="M17.056 5.11279H18.944C19.527 5.11279 20 5.58579 20 6.16879V13.5568C20 14.1398 19.527 14.6128 18.944 14.6128H17.056C16.473 14.6128 16 14.1398 16 13.5568V6.16879C16 5.58579 16.473 5.11279 17.056 5.11279V5.11279Z" stroke="#323232" stroke-width="1.5" stroke-linecap="round" stroke-linejoin="round"/>
<path d="M16 13.5407L12.351 18.2917C11.672 19.1767 10.346 19.1987 9.637 18.3377V18.3377C9.372 18.0167 9.228 17.6127 9.228 17.1967V13.9257H6.132C5.531 13.9257 4.97 13.6257 4.636 13.1267L4.307 12.6357C4.012 12.1947 3.926 11.6457 4.073 11.1367L5.432 6.41473C5.654 5.64373 6.359 5.11273 7.161 5.11273H13.45C13.95 5.11273 14.428 5.32073 14.768 5.68673L16 7.01273" stroke="#323232" stroke-width="1.5" stroke-linecap="round" stroke-linejoin="round"/>
</svg>
