<svg width="24" height="25" viewBox="0 0 24 25" fill="none" xmlns="http://www.w3.org/2000/svg">
<path fill-rule="evenodd" clip-rule="evenodd" d="M6.944 19.1128H5.056C4.473 19.1128 4 18.6398 4 18.0568V10.6688C4 10.0858 4.473 9.61279 5.056 9.61279H6.944C7.527 9.61279 8 10.0858 8 10.6688V18.0568C8 18.6398 7.527 19.1128 6.944 19.1128V19.1128Z" stroke="#323232" stroke-width="1.5" stroke-linecap="round" stroke-linejoin="round"/>
<path d="M8 10.6849L11.649 5.93386C12.328 5.04886 13.654 5.02686 14.363 5.88786V5.88786C14.628 6.20886 14.772 6.61286 14.772 7.02886V10.2999H17.868C18.469 10.2999 19.03 10.5999 19.364 11.0989L19.693 11.5899C19.988 12.0309 20.074 12.5799 19.927 13.0889L18.568 17.8109C18.346 18.5819 17.641 19.1129 16.839 19.1129H10.55C10.05 19.1129 9.572 18.9049 9.232 18.5389L8 17.2129" stroke="#323232" stroke-width="1.5" stroke-linecap="round" stroke-linejoin="round"/>
</svg>
